<svg id="visual" viewBox="0 0 675 900" width="675" height="900" xmlns="http://www.w3.org/2000/svg" xmlns:xlink="http://www.w3.org/1999/xlink" version="1.1"><rect x="0" y="0" width="675" height="900" fill="#fbfbfb"></rect><defs><linearGradient id="grad1_0" x1="0%" y1="0%" x2="100%" y2="100%"><stop offset="30%" stop-color="#fbfbfb" stop-opacity="1"></stop><stop offset="70%" stop-color="#fbfbfb" stop-opacity="1"></stop></linearGradient></defs><defs><linearGradient id="grad2_0" x1="0%" y1="0%" x2="100%" y2="100%"><stop offset="30%" stop-color="#fbfbfb" stop-opacity="1"></stop><stop offset="70%" stop-color="#fbfbfb" stop-opacity="1"></stop></linearGradient></defs><g transform="translate(675, 0)"><path d="M0 253.1C-46.1 247.6 -92.2 242 -126.6 219.2C-160.9 196.4 -183.5 156.4 -202.6 117C-221.8 77.6 -237.5 38.8 -253.1 0L0 0Z" fill="#c4825a"></path></g><g transform="translate(0, 900)"><path d="M0 -253.1C44.1 -246.4 88.3 -239.7 126.6 -219.2C164.8 -198.7 197.3 -164.3 217.4 -125.5C237.5 -86.7 245.3 -43.3 253.1 0L0 0Z" fill="#c4825a"></path></g></svg>