<svg id="visual" viewBox="0 0 540 960" width="540" height="960" xmlns="http://www.w3.org/2000/svg" xmlns:xlink="http://www.w3.org/1999/xlink" version="1.1"><rect x="0" y="0" width="540" height="960" fill="#fbfbfb"></rect><defs><linearGradient id="grad1_0" x1="0%" y1="0%" x2="100%" y2="100%"><stop offset="30%" stop-color="#fbfbfb" stop-opacity="1"></stop><stop offset="70%" stop-color="#fbfbfb" stop-opacity="1"></stop></linearGradient></defs><defs><linearGradient id="grad2_0" x1="0%" y1="0%" x2="100%" y2="100%"><stop offset="30%" stop-color="#fbfbfb" stop-opacity="1"></stop><stop offset="70%" stop-color="#fbfbfb" stop-opacity="1"></stop></linearGradient></defs><g transform="translate(540, 0)"><path d="M0 243C-50 241 -100 238.9 -121.5 210.4C-143 181.9 -136.1 127 -151.6 87.5C-167.1 48 -205 24 -243 0L0 0Z" fill="#c4825a"></path></g><g transform="translate(0, 960)"><path d="M0 -243C47.9 -239.8 95.8 -236.5 121.5 -210.4C147.2 -184.3 150.6 -135.4 167.1 -96.5C183.7 -57.6 213.3 -28.8 243 0L0 0Z" fill="#c4825a"></path></g></svg>